<svg xmlns="http://www.w3.org/2000/svg" xmlns:xlink="http://www.w3.org/1999/xlink" width="250" zoomAndPan="magnify" viewBox="0 0 187.5 74.999997" height="100" preserveAspectRatio="xMidYMid meet" version="1.0"><defs><g/><clipPath id="f16ccbbd83"><path d="M 0 0.101562 L 187 0.101562 L 187 74.898438 L 0 74.898438 Z M 0 0.101562 " clip-rule="nonzero"/></clipPath><clipPath id="81571ba30e"><path d="M 24 25 L 42 25 L 42 50 L 24 50 Z M 24 25 " clip-rule="nonzero"/></clipPath><clipPath id="d92ef586ec"><path d="M 35.789062 23.820312 L 43.582031 28.410156 L 30.175781 51.1875 L 22.378906 46.597656 Z M 35.789062 23.820312 " clip-rule="nonzero"/></clipPath><clipPath id="342b576040"><path d="M 39.683594 26.113281 C 40.71875 26.722656 41.46875 27.71875 41.769531 28.878906 C 42.070312 30.039062 41.898438 31.273438 41.289062 32.308594 L 32.476562 47.28125 C 31.867188 48.3125 30.871094 49.0625 29.710938 49.363281 C 28.550781 49.664062 27.316406 49.492188 26.28125 48.882812 C 25.25 48.273438 24.5 47.28125 24.199219 46.121094 C 23.898438 44.957031 24.070312 43.726562 24.679688 42.691406 L 33.492188 27.71875 C 34.101562 26.683594 35.097656 25.933594 36.257812 25.632812 C 37.417969 25.332031 38.652344 25.507812 39.683594 26.113281 Z M 39.683594 26.113281 " clip-rule="nonzero"/></clipPath><clipPath id="8c5406caa1"><path d="M 0 0.234375 L 18 0.234375 L 18 24.886719 L 0 24.886719 Z M 0 0.234375 " clip-rule="nonzero"/></clipPath><clipPath id="104ab3e8c3"><path d="M 11.789062 -1.179688 L 19.582031 3.410156 L 6.175781 26.1875 L -1.621094 21.597656 Z M 11.789062 -1.179688 " clip-rule="nonzero"/></clipPath><clipPath id="375d959d44"><path d="M 15.683594 1.113281 C 16.71875 1.722656 17.46875 2.71875 17.769531 3.878906 C 18.070312 5.039062 17.898438 6.273438 17.289062 7.308594 L 8.476562 22.28125 C 7.867188 23.3125 6.871094 24.0625 5.710938 24.363281 C 4.550781 24.664062 3.316406 24.492188 2.28125 23.882812 C 1.25 23.273438 0.5 22.28125 0.199219 21.121094 C -0.101562 19.957031 0.0703125 18.726562 0.679688 17.691406 L 9.492188 2.71875 C 10.101562 1.683594 11.097656 0.933594 12.257812 0.632812 C 13.417969 0.332031 14.652344 0.507812 15.683594 1.113281 Z M 15.683594 1.113281 " clip-rule="nonzero"/></clipPath><clipPath id="34519253e9"><path d="M 11.789062 -1.179688 L 19.582031 3.410156 L 6.175781 26.1875 L -1.621094 21.597656 Z M 11.789062 -1.179688 " clip-rule="nonzero"/></clipPath><clipPath id="8f77e4cf1d"><path d="M 11.789062 -1.179688 L 19.582031 3.410156 L 6.179688 26.179688 L -1.613281 21.589844 Z M 11.789062 -1.179688 " clip-rule="nonzero"/></clipPath><linearGradient x1="-268.2367" gradientTransform="matrix(0.0304527, 0.0179255, -0.0179255, 0.0304527, 11.787491, -1.17931)" y1="373.83701" x2="524.236667" gradientUnits="userSpaceOnUse" y2="373.83701" id="1bb223fb6b"><stop stop-opacity="1" stop-color="rgb(100%, 39.99939%, 76.858521%)" offset="0"/><stop stop-opacity="1" stop-color="rgb(100%, 39.99939%, 76.858521%)" offset="0.25"/><stop stop-opacity="1" stop-color="rgb(100%, 39.99939%, 76.858521%)" offset="0.3125"/><stop stop-opacity="1" stop-color="rgb(100%, 39.99939%, 76.858521%)" offset="0.328125"/><stop stop-opacity="1" stop-color="rgb(100%, 39.99939%, 76.858521%)" offset="0.335938"/><stop stop-opacity="1" stop-color="rgb(100%, 40.382385%, 76.516724%)" offset="0.339844"/><stop stop-opacity="1" stop-color="rgb(100%, 40.766907%, 76.174927%)" offset="0.34375"/><stop stop-opacity="1" stop-color="rgb(100%, 41.33606%, 75.666809%)" offset="0.347656"/><stop stop-opacity="1" stop-color="rgb(100%, 41.905212%, 75.160217%)" offset="0.351562"/><stop stop-opacity="1" stop-color="rgb(100%, 42.474365%, 74.6521%)" offset="0.355469"/><stop stop-opacity="1" stop-color="rgb(100%, 43.043518%, 74.145508%)" offset="0.359375"/><stop stop-opacity="1" stop-color="rgb(100%, 43.612671%, 73.63739%)" offset="0.363281"/><stop stop-opacity="1" stop-color="rgb(100%, 44.181824%, 73.130798%)" offset="0.367188"/><stop stop-opacity="1" stop-color="rgb(100%, 44.750977%, 72.622681%)" offset="0.371094"/><stop stop-opacity="1" stop-color="rgb(100%, 45.320129%, 72.116089%)" offset="0.375"/><stop stop-opacity="1" stop-color="rgb(100%, 45.887756%, 71.607971%)" offset="0.378906"/><stop stop-opacity="1" stop-color="rgb(100%, 46.456909%, 71.101379%)" offset="0.382812"/><stop stop-opacity="1" stop-color="rgb(100%, 47.026062%, 70.593262%)" offset="0.386719"/><stop stop-opacity="1" stop-color="rgb(100%, 47.595215%, 70.08667%)" offset="0.390625"/><stop stop-opacity="1" stop-color="rgb(100%, 48.164368%, 69.578552%)" offset="0.394531"/><stop stop-opacity="1" stop-color="rgb(100%, 48.733521%, 69.07196%)" offset="0.398438"/><stop stop-opacity="1" stop-color="rgb(100%, 49.302673%, 68.563843%)" offset="0.402344"/><stop stop-opacity="1" stop-color="rgb(100%, 49.871826%, 68.057251%)" offset="0.40625"/><stop stop-opacity="1" stop-color="rgb(100%, 50.440979%, 67.549133%)" offset="0.410156"/><stop stop-opacity="1" stop-color="rgb(100%, 51.010132%, 67.041016%)" offset="0.414062"/><stop stop-opacity="1" stop-color="rgb(100%, 51.579285%, 66.532898%)" offset="0.417969"/><stop stop-opacity="1" stop-color="rgb(100%, 52.148438%, 66.026306%)" offset="0.421875"/><stop stop-opacity="1" stop-color="rgb(100%, 52.71759%, 65.518188%)" offset="0.425781"/><stop stop-opacity="1" stop-color="rgb(100%, 53.286743%, 65.011597%)" offset="0.429688"/><stop stop-opacity="1" stop-color="rgb(100%, 53.855896%, 64.503479%)" offset="0.433594"/><stop stop-opacity="1" stop-color="rgb(100%, 54.425049%, 63.996887%)" offset="0.4375"/><stop stop-opacity="1" stop-color="rgb(100%, 54.992676%, 63.48877%)" offset="0.441406"/><stop stop-opacity="1" stop-color="rgb(100%, 55.561829%, 62.982178%)" offset="0.445312"/><stop stop-opacity="1" stop-color="rgb(100%, 56.130981%, 62.47406%)" offset="0.449219"/><stop stop-opacity="1" stop-color="rgb(100%, 56.700134%, 61.967468%)" offset="0.453125"/><stop stop-opacity="1" stop-color="rgb(100%, 57.269287%, 61.459351%)" offset="0.457031"/><stop stop-opacity="1" stop-color="rgb(100%, 57.83844%, 60.952759%)" offset="0.460938"/><stop stop-opacity="1" stop-color="rgb(100%, 58.407593%, 60.444641%)" offset="0.464844"/><stop stop-opacity="1" stop-color="rgb(100%, 58.976746%, 59.938049%)" offset="0.46875"/><stop stop-opacity="1" stop-color="rgb(100%, 59.545898%, 59.429932%)" offset="0.472656"/><stop stop-opacity="1" stop-color="rgb(100%, 60.115051%, 58.92334%)" offset="0.476562"/><stop stop-opacity="1" stop-color="rgb(100%, 60.684204%, 58.415222%)" offset="0.480469"/><stop stop-opacity="1" stop-color="rgb(100%, 61.253357%, 57.90863%)" offset="0.484375"/><stop stop-opacity="1" stop-color="rgb(100%, 61.82251%, 57.400513%)" offset="0.488281"/><stop stop-opacity="1" stop-color="rgb(100%, 62.391663%, 56.893921%)" offset="0.492188"/><stop stop-opacity="1" stop-color="rgb(100%, 62.960815%, 56.385803%)" offset="0.496094"/><stop stop-opacity="1" stop-color="rgb(100%, 63.529968%, 55.879211%)" offset="0.5"/><stop stop-opacity="1" stop-color="rgb(100%, 64.097595%, 55.371094%)" offset="0.503906"/><stop stop-opacity="1" stop-color="rgb(100%, 64.666748%, 54.864502%)" offset="0.507812"/><stop stop-opacity="1" stop-color="rgb(100%, 65.235901%, 54.356384%)" offset="0.511719"/><stop stop-opacity="1" stop-color="rgb(100%, 65.805054%, 53.849792%)" offset="0.515625"/><stop stop-opacity="1" stop-color="rgb(100%, 66.374207%, 53.341675%)" offset="0.519531"/><stop stop-opacity="1" stop-color="rgb(100%, 66.943359%, 52.835083%)" offset="0.523438"/><stop stop-opacity="1" stop-color="rgb(100%, 67.512512%, 52.326965%)" offset="0.527344"/><stop stop-opacity="1" stop-color="rgb(100%, 68.081665%, 51.820374%)" offset="0.53125"/><stop stop-opacity="1" stop-color="rgb(100%, 68.650818%, 51.312256%)" offset="0.535156"/><stop stop-opacity="1" stop-color="rgb(100%, 69.219971%, 50.805664%)" offset="0.539062"/><stop stop-opacity="1" stop-color="rgb(100%, 69.789124%, 50.297546%)" offset="0.542969"/><stop stop-opacity="1" stop-color="rgb(100%, 70.358276%, 49.790955%)" offset="0.546875"/><stop stop-opacity="1" stop-color="rgb(100%, 70.927429%, 49.282837%)" offset="0.550781"/><stop stop-opacity="1" stop-color="rgb(100%, 71.496582%, 48.776245%)" offset="0.554688"/><stop stop-opacity="1" stop-color="rgb(100%, 72.065735%, 48.268127%)" offset="0.558594"/><stop stop-opacity="1" stop-color="rgb(100%, 72.634888%, 47.761536%)" offset="0.5625"/><stop stop-opacity="1" stop-color="rgb(100%, 73.202515%, 47.253418%)" offset="0.566406"/><stop stop-opacity="1" stop-color="rgb(100%, 73.771667%, 46.746826%)" offset="0.570312"/><stop stop-opacity="1" stop-color="rgb(100%, 74.34082%, 46.238708%)" offset="0.574219"/><stop stop-opacity="1" stop-color="rgb(100%, 74.909973%, 45.732117%)" offset="0.578125"/><stop stop-opacity="1" stop-color="rgb(100%, 75.479126%, 45.223999%)" offset="0.582031"/><stop stop-opacity="1" stop-color="rgb(100%, 76.048279%, 44.717407%)" offset="0.585938"/><stop stop-opacity="1" stop-color="rgb(100%, 76.617432%, 44.20929%)" offset="0.589844"/><stop stop-opacity="1" stop-color="rgb(100%, 77.186584%, 43.701172%)" offset="0.59375"/><stop stop-opacity="1" stop-color="rgb(100%, 77.755737%, 43.193054%)" offset="0.597656"/><stop stop-opacity="1" stop-color="rgb(100%, 78.32489%, 42.686462%)" offset="0.601562"/><stop stop-opacity="1" stop-color="rgb(100%, 78.894043%, 42.178345%)" offset="0.605469"/><stop stop-opacity="1" stop-color="rgb(100%, 79.463196%, 41.671753%)" offset="0.609375"/><stop stop-opacity="1" stop-color="rgb(100%, 80.032349%, 41.163635%)" offset="0.613281"/><stop stop-opacity="1" stop-color="rgb(100%, 80.601501%, 40.657043%)" offset="0.617188"/><stop stop-opacity="1" stop-color="rgb(100%, 81.170654%, 40.148926%)" offset="0.621094"/><stop stop-opacity="1" stop-color="rgb(100%, 81.739807%, 39.642334%)" offset="0.625"/><stop stop-opacity="1" stop-color="rgb(100%, 82.307434%, 39.134216%)" offset="0.628906"/><stop stop-opacity="1" stop-color="rgb(100%, 82.876587%, 38.627625%)" offset="0.632812"/><stop stop-opacity="1" stop-color="rgb(100%, 83.44574%, 38.119507%)" offset="0.636719"/><stop stop-opacity="1" stop-color="rgb(100%, 84.014893%, 37.612915%)" offset="0.640625"/><stop stop-opacity="1" stop-color="rgb(100%, 84.584045%, 37.104797%)" offset="0.644531"/><stop stop-opacity="1" stop-color="rgb(100%, 85.153198%, 36.598206%)" offset="0.648438"/><stop stop-opacity="1" stop-color="rgb(100%, 85.722351%, 36.090088%)" offset="0.652344"/><stop stop-opacity="1" stop-color="rgb(100%, 86.291504%, 35.583496%)" offset="0.65625"/><stop stop-opacity="1" stop-color="rgb(100%, 86.6745%, 35.241699%)" offset="0.660156"/><stop stop-opacity="1" stop-color="rgb(100%, 87.059021%, 34.899902%)" offset="0.664062"/><stop stop-opacity="1" stop-color="rgb(100%, 87.059021%, 34.899902%)" offset="0.671875"/><stop stop-opacity="1" stop-color="rgb(100%, 87.059021%, 34.899902%)" offset="0.6875"/><stop stop-opacity="1" stop-color="rgb(100%, 87.059021%, 34.899902%)" offset="0.75"/><stop stop-opacity="1" stop-color="rgb(100%, 87.059021%, 34.899902%)" offset="1"/></linearGradient><clipPath id="090b1f61b8"><rect x="0" width="18" y="0" height="25"/></clipPath><clipPath id="9a47ef25eb"><path d="M 14.898438 25.46875 L 24.21875 25.46875 L 24.21875 34.789062 L 14.898438 34.789062 Z M 14.898438 25.46875 " clip-rule="nonzero"/></clipPath><clipPath id="fc1f4129a2"><path d="M 19.558594 25.46875 C 16.984375 25.46875 14.898438 27.554688 14.898438 30.128906 C 14.898438 32.703125 16.984375 34.789062 19.558594 34.789062 C 22.132812 34.789062 24.21875 32.703125 24.21875 30.128906 C 24.21875 27.554688 22.132812 25.46875 19.558594 25.46875 Z M 19.558594 25.46875 " clip-rule="nonzero"/></clipPath><clipPath id="ec2bb8ba60"><path d="M 0.898438 0.46875 L 10.21875 0.46875 L 10.21875 9.789062 L 0.898438 9.789062 Z M 0.898438 0.46875 " clip-rule="nonzero"/></clipPath><clipPath id="3c1b84156d"><path d="M 5.558594 0.46875 C 2.984375 0.46875 0.898438 2.554688 0.898438 5.128906 C 0.898438 7.703125 2.984375 9.789062 5.558594 9.789062 C 8.132812 9.789062 10.21875 7.703125 10.21875 5.128906 C 10.21875 2.554688 8.132812 0.46875 5.558594 0.46875 Z M 5.558594 0.46875 " clip-rule="nonzero"/></clipPath><linearGradient x1="0" gradientTransform="matrix(0.0364056, 0, 0, 0.0364056, 0.898031, 0.468356)" y1="128" x2="256" gradientUnits="userSpaceOnUse" y2="128" id="d6cc14cd26"><stop stop-opacity="1" stop-color="rgb(100%, 96.859741%, 67.83905%)" offset="0"/><stop stop-opacity="1" stop-color="rgb(100%, 96.739197%, 67.955017%)" offset="0.0078125"/><stop stop-opacity="1" stop-color="rgb(100%, 96.499634%, 68.188477%)" offset="0.015625"/><stop stop-opacity="1" stop-color="rgb(100%, 96.261597%, 68.42041%)" offset="0.0234375"/><stop stop-opacity="1" stop-color="rgb(100%, 96.022034%, 68.65387%)" offset="0.03125"/><stop stop-opacity="1" stop-color="rgb(100%, 95.783997%, 68.887329%)" offset="0.0390625"/><stop stop-opacity="1" stop-color="rgb(100%, 95.544434%, 69.119263%)" offset="0.046875"/><stop stop-opacity="1" stop-color="rgb(100%, 95.304871%, 69.352722%)" offset="0.0546875"/><stop stop-opacity="1" stop-color="rgb(100%, 95.066833%, 69.586182%)" offset="0.0625"/><stop stop-opacity="1" stop-color="rgb(100%, 94.827271%, 69.818115%)" offset="0.0703125"/><stop stop-opacity="1" stop-color="rgb(100%, 94.587708%, 70.051575%)" offset="0.078125"/><stop stop-opacity="1" stop-color="rgb(100%, 94.34967%, 70.283508%)" offset="0.0859375"/><stop stop-opacity="1" stop-color="rgb(100%, 94.110107%, 70.516968%)" offset="0.09375"/><stop stop-opacity="1" stop-color="rgb(100%, 93.87207%, 70.750427%)" offset="0.101563"/><stop stop-opacity="1" stop-color="rgb(100%, 93.632507%, 70.982361%)" offset="0.109375"/><stop stop-opacity="1" stop-color="rgb(100%, 93.392944%, 71.21582%)" offset="0.117187"/><stop stop-opacity="1" stop-color="rgb(100%, 93.154907%, 71.44928%)" offset="0.125"/><stop stop-opacity="1" stop-color="rgb(100%, 92.915344%, 71.681213%)" offset="0.132812"/><stop stop-opacity="1" stop-color="rgb(100%, 92.675781%, 71.914673%)" offset="0.140625"/><stop stop-opacity="1" stop-color="rgb(100%, 92.437744%, 72.146606%)" offset="0.148438"/><stop stop-opacity="1" stop-color="rgb(100%, 92.198181%, 72.380066%)" offset="0.15625"/><stop stop-opacity="1" stop-color="rgb(100%, 91.960144%, 72.613525%)" offset="0.164062"/><stop stop-opacity="1" stop-color="rgb(100%, 91.720581%, 72.845459%)" offset="0.171875"/><stop stop-opacity="1" stop-color="rgb(100%, 91.481018%, 73.078918%)" offset="0.179688"/><stop stop-opacity="1" stop-color="rgb(100%, 91.242981%, 73.312378%)" offset="0.1875"/><stop stop-opacity="1" stop-color="rgb(100%, 91.003418%, 73.544312%)" offset="0.195312"/><stop stop-opacity="1" stop-color="rgb(100%, 90.765381%, 73.777771%)" offset="0.203125"/><stop stop-opacity="1" stop-color="rgb(100%, 90.525818%, 74.009705%)" offset="0.210938"/><stop stop-opacity="1" stop-color="rgb(100%, 90.286255%, 74.243164%)" offset="0.21875"/><stop stop-opacity="1" stop-color="rgb(100%, 90.048218%, 74.476624%)" offset="0.226562"/><stop stop-opacity="1" stop-color="rgb(100%, 89.808655%, 74.708557%)" offset="0.234375"/><stop stop-opacity="1" stop-color="rgb(100%, 89.569092%, 74.942017%)" offset="0.242188"/><stop stop-opacity="1" stop-color="rgb(100%, 89.331055%, 75.175476%)" offset="0.25"/><stop stop-opacity="1" stop-color="rgb(100%, 89.091492%, 75.40741%)" offset="0.257813"/><stop stop-opacity="1" stop-color="rgb(100%, 88.853455%, 75.640869%)" offset="0.265625"/><stop stop-opacity="1" stop-color="rgb(100%, 88.613892%, 75.872803%)" offset="0.273438"/><stop stop-opacity="1" stop-color="rgb(100%, 88.374329%, 76.106262%)" offset="0.28125"/><stop stop-opacity="1" stop-color="rgb(100%, 88.136292%, 76.339722%)" offset="0.289062"/><stop stop-opacity="1" stop-color="rgb(100%, 87.896729%, 76.571655%)" offset="0.296875"/><stop stop-opacity="1" stop-color="rgb(100%, 87.657166%, 76.805115%)" offset="0.304688"/><stop stop-opacity="1" stop-color="rgb(100%, 87.419128%, 77.038574%)" offset="0.3125"/><stop stop-opacity="1" stop-color="rgb(100%, 87.179565%, 77.270508%)" offset="0.320312"/><stop stop-opacity="1" stop-color="rgb(100%, 86.941528%, 77.503967%)" offset="0.328125"/><stop stop-opacity="1" stop-color="rgb(100%, 86.701965%, 77.735901%)" offset="0.335938"/><stop stop-opacity="1" stop-color="rgb(100%, 86.462402%, 77.96936%)" offset="0.34375"/><stop stop-opacity="1" stop-color="rgb(100%, 86.224365%, 78.20282%)" offset="0.351562"/><stop stop-opacity="1" stop-color="rgb(100%, 85.984802%, 78.434753%)" offset="0.359375"/><stop stop-opacity="1" stop-color="rgb(100%, 85.745239%, 78.668213%)" offset="0.367187"/><stop stop-opacity="1" stop-color="rgb(100%, 85.507202%, 78.901672%)" offset="0.375"/><stop stop-opacity="1" stop-color="rgb(100%, 85.267639%, 79.133606%)" offset="0.382813"/><stop stop-opacity="1" stop-color="rgb(100%, 85.029602%, 79.367065%)" offset="0.390625"/><stop stop-opacity="1" stop-color="rgb(100%, 84.790039%, 79.598999%)" offset="0.398438"/><stop stop-opacity="1" stop-color="rgb(100%, 84.550476%, 79.832458%)" offset="0.40625"/><stop stop-opacity="1" stop-color="rgb(100%, 84.312439%, 80.065918%)" offset="0.414062"/><stop stop-opacity="1" stop-color="rgb(100%, 84.072876%, 80.297852%)" offset="0.421875"/><stop stop-opacity="1" stop-color="rgb(100%, 83.834839%, 80.531311%)" offset="0.429688"/><stop stop-opacity="1" stop-color="rgb(100%, 83.595276%, 80.764771%)" offset="0.4375"/><stop stop-opacity="1" stop-color="rgb(100%, 83.355713%, 80.996704%)" offset="0.445312"/><stop stop-opacity="1" stop-color="rgb(100%, 83.117676%, 81.230164%)" offset="0.453125"/><stop stop-opacity="1" stop-color="rgb(100%, 82.878113%, 81.462097%)" offset="0.460938"/><stop stop-opacity="1" stop-color="rgb(100%, 82.63855%, 81.695557%)" offset="0.46875"/><stop stop-opacity="1" stop-color="rgb(100%, 82.400513%, 81.929016%)" offset="0.476562"/><stop stop-opacity="1" stop-color="rgb(100%, 82.16095%, 82.16095%)" offset="0.484375"/><stop stop-opacity="1" stop-color="rgb(100%, 81.922913%, 82.394409%)" offset="0.492187"/><stop stop-opacity="1" stop-color="rgb(100%, 81.68335%, 82.627869%)" offset="0.5"/><stop stop-opacity="1" stop-color="rgb(100%, 81.443787%, 82.859802%)" offset="0.507812"/><stop stop-opacity="1" stop-color="rgb(100%, 81.20575%, 83.093262%)" offset="0.515625"/><stop stop-opacity="1" stop-color="rgb(100%, 80.966187%, 83.326721%)" offset="0.523438"/><stop stop-opacity="1" stop-color="rgb(100%, 80.726624%, 83.558655%)" offset="0.53125"/><stop stop-opacity="1" stop-color="rgb(100%, 80.488586%, 83.792114%)" offset="0.539062"/><stop stop-opacity="1" stop-color="rgb(100%, 80.249023%, 84.024048%)" offset="0.546875"/><stop stop-opacity="1" stop-color="rgb(100%, 80.010986%, 84.257507%)" offset="0.554688"/><stop stop-opacity="1" stop-color="rgb(100%, 79.771423%, 84.490967%)" offset="0.5625"/><stop stop-opacity="1" stop-color="rgb(100%, 79.53186%, 84.7229%)" offset="0.570313"/><stop stop-opacity="1" stop-color="rgb(100%, 79.293823%, 84.95636%)" offset="0.578125"/><stop stop-opacity="1" stop-color="rgb(100%, 79.05426%, 85.189819%)" offset="0.585937"/><stop stop-opacity="1" stop-color="rgb(100%, 78.814697%, 85.421753%)" offset="0.59375"/><stop stop-opacity="1" stop-color="rgb(100%, 78.57666%, 85.655212%)" offset="0.601562"/><stop stop-opacity="1" stop-color="rgb(100%, 78.337097%, 85.887146%)" offset="0.609375"/><stop stop-opacity="1" stop-color="rgb(100%, 78.09906%, 86.120605%)" offset="0.617188"/><stop stop-opacity="1" stop-color="rgb(100%, 77.859497%, 86.354065%)" offset="0.625"/><stop stop-opacity="1" stop-color="rgb(100%, 77.619934%, 86.585999%)" offset="0.632812"/><stop stop-opacity="1" stop-color="rgb(100%, 77.381897%, 86.819458%)" offset="0.640625"/><stop stop-opacity="1" stop-color="rgb(100%, 77.142334%, 87.052917%)" offset="0.648438"/><stop stop-opacity="1" stop-color="rgb(100%, 76.904297%, 87.284851%)" offset="0.65625"/><stop stop-opacity="1" stop-color="rgb(100%, 76.664734%, 87.518311%)" offset="0.664063"/><stop stop-opacity="1" stop-color="rgb(100%, 76.425171%, 87.750244%)" offset="0.671875"/><stop stop-opacity="1" stop-color="rgb(100%, 76.187134%, 87.983704%)" offset="0.679687"/><stop stop-opacity="1" stop-color="rgb(100%, 75.947571%, 88.217163%)" offset="0.6875"/><stop stop-opacity="1" stop-color="rgb(100%, 75.708008%, 88.449097%)" offset="0.695312"/><stop stop-opacity="1" stop-color="rgb(100%, 75.469971%, 88.682556%)" offset="0.703125"/><stop stop-opacity="1" stop-color="rgb(100%, 75.230408%, 88.916016%)" offset="0.710938"/><stop stop-opacity="1" stop-color="rgb(100%, 74.992371%, 89.147949%)" offset="0.71875"/><stop stop-opacity="1" stop-color="rgb(100%, 74.752808%, 89.381409%)" offset="0.726562"/><stop stop-opacity="1" stop-color="rgb(100%, 74.513245%, 89.613342%)" offset="0.734375"/><stop stop-opacity="1" stop-color="rgb(100%, 74.275208%, 89.846802%)" offset="0.742188"/><stop stop-opacity="1" stop-color="rgb(100%, 74.035645%, 90.080261%)" offset="0.75"/><stop stop-opacity="1" stop-color="rgb(100%, 73.796082%, 90.312195%)" offset="0.757812"/><stop stop-opacity="1" stop-color="rgb(100%, 73.558044%, 90.545654%)" offset="0.765625"/><stop stop-opacity="1" stop-color="rgb(100%, 73.318481%, 90.779114%)" offset="0.773438"/><stop stop-opacity="1" stop-color="rgb(100%, 73.080444%, 91.011047%)" offset="0.78125"/><stop stop-opacity="1" stop-color="rgb(100%, 72.840881%, 91.244507%)" offset="0.789062"/><stop stop-opacity="1" stop-color="rgb(100%, 72.601318%, 91.47644%)" offset="0.796875"/><stop stop-opacity="1" stop-color="rgb(100%, 72.363281%, 91.7099%)" offset="0.804688"/><stop stop-opacity="1" stop-color="rgb(100%, 72.123718%, 91.943359%)" offset="0.8125"/><stop stop-opacity="1" stop-color="rgb(100%, 71.884155%, 92.175293%)" offset="0.820313"/><stop stop-opacity="1" stop-color="rgb(100%, 71.646118%, 92.408752%)" offset="0.828125"/><stop stop-opacity="1" stop-color="rgb(100%, 71.406555%, 92.642212%)" offset="0.835937"/><stop stop-opacity="1" stop-color="rgb(100%, 71.168518%, 92.874146%)" offset="0.84375"/><stop stop-opacity="1" stop-color="rgb(100%, 70.928955%, 93.107605%)" offset="0.851562"/><stop stop-opacity="1" stop-color="rgb(100%, 70.689392%, 93.339539%)" offset="0.859375"/><stop stop-opacity="1" stop-color="rgb(100%, 70.451355%, 93.572998%)" offset="0.867188"/><stop stop-opacity="1" stop-color="rgb(100%, 70.211792%, 93.806458%)" offset="0.875"/><stop stop-opacity="1" stop-color="rgb(100%, 69.973755%, 94.038391%)" offset="0.882812"/><stop stop-opacity="1" stop-color="rgb(100%, 69.734192%, 94.271851%)" offset="0.890625"/><stop stop-opacity="1" stop-color="rgb(100%, 69.494629%, 94.50531%)" offset="0.898438"/><stop stop-opacity="1" stop-color="rgb(100%, 69.256592%, 94.737244%)" offset="0.90625"/><stop stop-opacity="1" stop-color="rgb(100%, 69.017029%, 94.970703%)" offset="0.914063"/><stop stop-opacity="1" stop-color="rgb(100%, 68.777466%, 95.204163%)" offset="0.921875"/><stop stop-opacity="1" stop-color="rgb(100%, 68.539429%, 95.436096%)" offset="0.929687"/><stop stop-opacity="1" stop-color="rgb(100%, 68.299866%, 95.669556%)" offset="0.9375"/><stop stop-opacity="1" stop-color="rgb(100%, 68.061829%, 95.901489%)" offset="0.945312"/><stop stop-opacity="1" stop-color="rgb(100%, 67.822266%, 96.134949%)" offset="0.953125"/><stop stop-opacity="1" stop-color="rgb(100%, 67.582703%, 96.368408%)" offset="0.960938"/><stop stop-opacity="1" stop-color="rgb(100%, 67.344666%, 96.600342%)" offset="0.96875"/><stop stop-opacity="1" stop-color="rgb(100%, 67.105103%, 96.833801%)" offset="0.976562"/><stop stop-opacity="1" stop-color="rgb(100%, 66.86554%, 97.067261%)" offset="0.984375"/><stop stop-opacity="1" stop-color="rgb(100%, 66.627502%, 97.299194%)" offset="0.992188"/><stop stop-opacity="1" stop-color="rgb(100%, 66.387939%, 97.532654%)" offset="1"/></linearGradient><clipPath id="f1c9365e54"><rect x="0" width="11" y="0" height="10"/></clipPath><clipPath id="99fbf10827"><path d="M 108 6 L 121.863281 6 L 121.863281 28 L 108 28 Z M 108 6 " clip-rule="nonzero"/></clipPath><clipPath id="23c31ee2c6"><rect x="0" width="122" y="0" height="35"/></clipPath></defs><g clip-path="url(#f16ccbbd83)"><path fill="#ffffff" d="M 0 0.101562 L 187 0.101562 L 187 74.898438 L 0 74.898438 Z M 0 0.101562 " fill-opacity="1" fill-rule="nonzero"/><path fill="#ffffff" d="M 0 0.101562 L 187 0.101562 L 187 74.898438 L 0 74.898438 Z M 0 0.101562 " fill-opacity="1" fill-rule="nonzero"/></g><g clip-path="url(#81571ba30e)"><g clip-path="url(#d92ef586ec)"><g clip-path="url(#342b576040)"><g transform="matrix(1, 0, 0, 1, 24, 25)"><g clip-path="url(#090b1f61b8)"><g clip-path="url(#8c5406caa1)"><g clip-path="url(#104ab3e8c3)"><g clip-path="url(#375d959d44)"><g clip-path="url(#34519253e9)"><g clip-path="url(#8f77e4cf1d)"><path fill="url(#1bb223fb6b)" d="M 4.574219 -7.609375 L -10.738281 18.402344 L 13.394531 32.609375 L 28.707031 6.59375 Z M 4.574219 -7.609375 " fill-rule="nonzero"/></g></g></g></g></g></g></g></g></g></g><g clip-path="url(#9a47ef25eb)"><g clip-path="url(#fc1f4129a2)"><g transform="matrix(1, 0, 0, 1, 14, 25)"><g clip-path="url(#f1c9365e54)"><g clip-path="url(#ec2bb8ba60)"><g clip-path="url(#3c1b84156d)"><path fill="url(#d6cc14cd26)" d="M 0.898438 0.46875 L 0.898438 9.789062 L 10.21875 9.789062 L 10.21875 0.46875 Z M 0.898438 0.46875 " fill-rule="nonzero"/></g></g></g></g></g></g><g transform="matrix(1, 0, 0, 1, 50, 20)"><g clip-path="url(#23c31ee2c6)"><g fill="#000000" fill-opacity="1"><g transform="translate(0.356527, 27.554127)"><g><path d="M 1.109375 -17.890625 C 1.109375 -18.316406 1.117188 -18.632812 1.140625 -18.84375 C 1.171875 -19.0625 1.265625 -19.304688 1.421875 -19.578125 C 1.671875 -20.078125 2.390625 -20.328125 3.578125 -20.328125 C 4.867188 -20.328125 5.632812 -19.984375 5.875 -19.296875 C 5.96875 -18.984375 6.015625 -18.503906 6.015625 -17.859375 L 6.015625 -2.4375 C 6.015625 -2 6 -1.675781 5.96875 -1.46875 C 5.945312 -1.269531 5.863281 -1.03125 5.71875 -0.75 C 5.457031 -0.25 4.734375 0 3.546875 0 C 2.253906 0 1.5 -0.347656 1.28125 -1.046875 C 1.164062 -1.347656 1.109375 -1.820312 1.109375 -2.46875 Z M 1.109375 -17.890625 "/></g></g></g><g fill="#000000" fill-opacity="1"><g transform="translate(5.873865, 27.554127)"><g><path d="M 9.234375 -14.609375 C 11.085938 -14.609375 12.628906 -13.898438 13.859375 -12.484375 C 15.085938 -11.078125 15.703125 -9.359375 15.703125 -7.328125 L 15.703125 -2.4375 C 15.703125 -2.007812 15.6875 -1.691406 15.65625 -1.484375 C 15.625 -1.273438 15.546875 -1.039062 15.421875 -0.78125 C 15.160156 -0.28125 14.4375 -0.03125 13.25 -0.03125 C 11.9375 -0.03125 11.179688 -0.367188 10.984375 -1.046875 C 10.867188 -1.367188 10.8125 -1.84375 10.8125 -2.46875 L 10.8125 -7.34375 C 10.8125 -8.101562 10.59375 -8.695312 10.15625 -9.125 C 9.726562 -9.550781 9.148438 -9.765625 8.421875 -9.765625 C 7.691406 -9.765625 7.097656 -9.539062 6.640625 -9.09375 C 6.191406 -8.65625 5.96875 -8.070312 5.96875 -7.34375 L 5.96875 -2.4375 C 5.96875 -2.007812 5.953125 -1.691406 5.921875 -1.484375 C 5.890625 -1.273438 5.800781 -1.039062 5.65625 -0.78125 C 5.414062 -0.28125 4.703125 -0.03125 3.515625 -0.03125 C 2.359375 -0.03125 1.648438 -0.28125 1.390625 -0.78125 C 1.253906 -1.050781 1.171875 -1.289062 1.140625 -1.5 C 1.117188 -1.71875 1.109375 -2.039062 1.109375 -2.46875 L 1.109375 -12.28125 C 1.109375 -12.6875 1.117188 -12.992188 1.140625 -13.203125 C 1.171875 -13.421875 1.265625 -13.660156 1.421875 -13.921875 C 1.671875 -14.378906 2.378906 -14.609375 3.546875 -14.609375 C 4.671875 -14.609375 5.363281 -14.398438 5.625 -13.984375 C 5.8125 -13.660156 5.90625 -13.28125 5.90625 -12.84375 C 5.976562 -12.96875 6.144531 -13.148438 6.40625 -13.390625 C 6.664062 -13.628906 6.914062 -13.828125 7.15625 -13.984375 C 7.78125 -14.398438 8.472656 -14.609375 9.234375 -14.609375 Z M 9.234375 -14.609375 "/></g></g></g><g fill="#000000" fill-opacity="1"><g transform="translate(21.068052, 27.554127)"><g><path d="M 9.65625 -14.59375 C 10.925781 -14.59375 11.671875 -14.238281 11.890625 -13.53125 C 12.003906 -13.175781 12.0625 -12.710938 12.0625 -12.140625 C 12.0625 -11.566406 12 -11.109375 11.875 -10.765625 C 11.757812 -10.429688 11.570312 -10.191406 11.3125 -10.046875 C 10.925781 -9.816406 10.363281 -9.703125 9.625 -9.703125 L 7.84375 -9.8125 L 7.84375 -2.390625 C 7.84375 -1.679688 7.753906 -1.15625 7.578125 -0.8125 C 7.410156 -0.476562 7.144531 -0.253906 6.78125 -0.140625 C 6.414062 -0.0234375 5.945312 0.03125 5.375 0.03125 C 4.800781 0.03125 4.34375 -0.0234375 4 -0.140625 C 3.664062 -0.265625 3.421875 -0.460938 3.265625 -0.734375 C 3.117188 -1.003906 3.03125 -1.25 3 -1.46875 C 2.976562 -1.6875 2.96875 -2.007812 2.96875 -2.4375 L 2.96875 -9.796875 L 1.96875 -9.796875 C 1.488281 -9.828125 1.144531 -9.9375 0.9375 -10.125 C 0.59375 -10.476562 0.421875 -11.148438 0.421875 -12.140625 C 0.421875 -13.660156 0.960938 -14.421875 2.046875 -14.421875 L 2.96875 -14.421875 L 2.96875 -15.890625 C 2.96875 -17.316406 3.472656 -18.609375 4.484375 -19.765625 C 5.503906 -20.921875 6.976562 -21.5 8.90625 -21.5 C 9.332031 -21.5 9.648438 -21.484375 9.859375 -21.453125 C 10.066406 -21.421875 10.3125 -21.332031 10.59375 -21.1875 C 11.09375 -20.945312 11.34375 -20.234375 11.34375 -19.046875 C 11.34375 -18.160156 11.1875 -17.523438 10.875 -17.140625 C 10.613281 -16.847656 10.207031 -16.679688 9.65625 -16.640625 C 9.488281 -16.640625 9.226562 -16.640625 8.875 -16.640625 C 8.1875 -16.640625 7.84375 -16.410156 7.84375 -15.953125 L 7.84375 -14.421875 Z M 9.65625 -14.59375 "/></g></g></g><g fill="#000000" fill-opacity="1"><g transform="translate(31.936767, 27.554127)"><g><path d="M 1.109375 -19.046875 C 1.109375 -19.472656 1.117188 -19.789062 1.140625 -20 C 1.171875 -20.21875 1.253906 -20.46875 1.390625 -20.75 C 1.648438 -21.25 2.367188 -21.5 3.546875 -21.5 C 4.671875 -21.5 5.375 -21.25 5.65625 -20.75 C 5.800781 -20.46875 5.890625 -20.210938 5.921875 -19.984375 C 5.953125 -19.765625 5.96875 -19.445312 5.96875 -19.03125 L 5.96875 -6.1875 C 5.96875 -5.519531 6.019531 -5.097656 6.125 -4.921875 C 6.238281 -4.742188 6.484375 -4.65625 6.859375 -4.65625 C 7.242188 -4.65625 7.5 -4.640625 7.625 -4.609375 C 7.757812 -4.585938 7.914062 -4.507812 8.09375 -4.375 C 8.46875 -4.132812 8.65625 -3.476562 8.65625 -2.40625 C 8.65625 -1.25 8.46875 -0.539062 8.09375 -0.28125 C 7.613281 0.0507812 6.46875 0.109375 4.65625 -0.109375 C 3.238281 -0.296875 2.316406 -0.769531 1.890625 -1.53125 C 1.367188 -2.4375 1.109375 -3.878906 1.109375 -5.859375 Z M 1.109375 -19.046875 "/></g></g></g><g fill="#000000" fill-opacity="1"><g transform="translate(39.395021, 27.554127)"><g><path d="M 7.59375 -0.0625 C 5.726562 -0.0625 4.179688 -0.765625 2.953125 -2.171875 C 1.722656 -3.585938 1.109375 -5.3125 1.109375 -7.34375 L 1.109375 -12.203125 C 1.109375 -12.648438 1.117188 -12.972656 1.140625 -13.171875 C 1.171875 -13.378906 1.253906 -13.617188 1.390625 -13.890625 C 1.648438 -14.390625 2.367188 -14.640625 3.546875 -14.640625 C 4.835938 -14.640625 5.597656 -14.289062 5.828125 -13.59375 C 5.929688 -13.289062 5.984375 -12.816406 5.984375 -12.171875 L 5.984375 -7.328125 C 5.984375 -6.566406 6.203125 -5.972656 6.640625 -5.546875 C 7.078125 -5.117188 7.660156 -4.90625 8.390625 -4.90625 C 9.117188 -4.90625 9.707031 -5.125 10.15625 -5.5625 C 10.613281 -6.007812 10.84375 -6.597656 10.84375 -7.328125 L 10.84375 -12.234375 C 10.84375 -12.660156 10.851562 -12.976562 10.875 -13.1875 C 10.90625 -13.394531 11 -13.640625 11.15625 -13.921875 C 11.394531 -14.398438 12.101562 -14.640625 13.28125 -14.640625 C 14.445312 -14.640625 15.160156 -14.390625 15.421875 -13.890625 C 15.546875 -13.617188 15.625 -13.375 15.65625 -13.15625 C 15.6875 -12.945312 15.703125 -12.628906 15.703125 -12.203125 L 15.703125 -2.390625 C 15.703125 -1.984375 15.6875 -1.671875 15.65625 -1.453125 C 15.625 -1.242188 15.535156 -1.007812 15.390625 -0.75 C 15.109375 -0.269531 14.394531 -0.03125 13.25 -0.03125 C 12.125 -0.03125 11.429688 -0.25 11.171875 -0.6875 C 10.992188 -1.007812 10.90625 -1.390625 10.90625 -1.828125 C 10.820312 -1.703125 10.648438 -1.519531 10.390625 -1.28125 C 10.140625 -1.039062 9.894531 -0.835938 9.65625 -0.671875 C 9.019531 -0.265625 8.332031 -0.0625 7.59375 -0.0625 Z M 7.59375 -0.0625 "/></g></g></g><g fill="#000000" fill-opacity="1"><g transform="translate(54.589209, 27.554127)"><g><path d="M 1.21875 -1.296875 C 0.863281 -1.523438 0.6875 -1.878906 0.6875 -2.359375 C 0.6875 -2.835938 1.039062 -3.566406 1.75 -4.546875 C 1.945312 -4.859375 2.269531 -5.015625 2.71875 -5.015625 C 3.175781 -5.015625 3.789062 -4.785156 4.5625 -4.328125 C 5.34375 -3.878906 6.050781 -3.65625 6.6875 -3.65625 C 7.8125 -3.65625 8.375 -3.878906 8.375 -4.328125 C 8.375 -4.679688 7.753906 -4.941406 6.515625 -5.109375 C 5.347656 -5.273438 4.191406 -5.707031 3.046875 -6.40625 C 2.515625 -6.738281 2.070312 -7.257812 1.71875 -7.96875 C 1.363281 -8.6875 1.1875 -9.535156 1.1875 -10.515625 C 1.1875 -13.429688 3.191406 -14.890625 7.203125 -14.890625 C 8.523438 -14.890625 9.878906 -14.578125 11.265625 -13.953125 C 11.910156 -13.648438 12.234375 -13.273438 12.234375 -12.828125 C 12.234375 -12.390625 12.03125 -11.847656 11.625 -11.203125 C 11.21875 -10.554688 10.800781 -10.234375 10.375 -10.234375 C 10.15625 -10.234375 9.742188 -10.367188 9.140625 -10.640625 C 8.535156 -10.921875 7.882812 -11.0625 7.1875 -11.0625 C 6.09375 -11.0625 5.546875 -10.859375 5.546875 -10.453125 C 5.546875 -9.898438 6.175781 -9.539062 7.4375 -9.375 C 8.65625 -9.25 9.835938 -8.894531 10.984375 -8.3125 C 11.515625 -8.0625 11.960938 -7.613281 12.328125 -6.96875 C 12.691406 -6.332031 12.875 -5.535156 12.875 -4.578125 C 12.875 -3.617188 12.691406 -2.800781 12.328125 -2.125 C 11.960938 -1.445312 11.457031 -0.941406 10.8125 -0.609375 C 9.632812 -0.0351562 8.148438 0.25 6.359375 0.25 C 4.578125 0.25 2.863281 -0.265625 1.21875 -1.296875 Z M 1.21875 -1.296875 "/></g></g></g><g fill="#000000" fill-opacity="1"><g transform="translate(66.539293, 27.554127)"><g><path d="M 1.109375 3.96875 L 1.109375 -12.234375 C 1.109375 -12.660156 1.117188 -12.972656 1.140625 -13.171875 C 1.171875 -13.378906 1.253906 -13.609375 1.390625 -13.859375 C 1.648438 -14.359375 2.269531 -14.609375 3.25 -14.609375 C 4.226562 -14.609375 4.882812 -14.484375 5.21875 -14.234375 C 5.5625 -13.984375 5.765625 -13.617188 5.828125 -13.140625 C 6.523438 -14.109375 7.628906 -14.59375 9.140625 -14.59375 C 10.648438 -14.59375 12.078125 -13.878906 13.421875 -12.453125 C 14.773438 -11.023438 15.453125 -9.367188 15.453125 -7.484375 C 15.453125 -5.597656 14.78125 -3.941406 13.4375 -2.515625 C 12.09375 -1.097656 10.660156 -0.390625 9.140625 -0.390625 C 7.628906 -0.390625 6.535156 -0.8125 5.859375 -1.65625 L 5.859375 3.9375 C 5.859375 4.363281 5.84375 4.675781 5.8125 4.875 C 5.78125 5.082031 5.695312 5.316406 5.5625 5.578125 C 5.425781 5.847656 5.191406 6.039062 4.859375 6.15625 C 4.523438 6.269531 4.070312 6.328125 3.5 6.328125 C 2.925781 6.328125 2.46875 6.269531 2.125 6.15625 C 1.78125 6.039062 1.535156 5.851562 1.390625 5.59375 C 1.253906 5.34375 1.171875 5.113281 1.140625 4.90625 C 1.117188 4.707031 1.109375 4.394531 1.109375 3.96875 Z M 6.59375 -9.09375 C 6.175781 -8.59375 5.96875 -8.046875 5.96875 -7.453125 C 5.96875 -6.867188 6.179688 -6.332031 6.609375 -5.84375 C 7.046875 -5.351562 7.601562 -5.109375 8.28125 -5.109375 C 8.957031 -5.109375 9.53125 -5.347656 10 -5.828125 C 10.46875 -6.304688 10.703125 -6.847656 10.703125 -7.453125 C 10.703125 -8.066406 10.476562 -8.617188 10.03125 -9.109375 C 9.59375 -9.597656 9.015625 -9.84375 8.296875 -9.84375 C 7.585938 -9.84375 7.019531 -9.59375 6.59375 -9.09375 Z M 6.59375 -9.09375 "/></g></g></g><g fill="#000000" fill-opacity="1"><g transform="translate(81.068022, 27.554127)"><g><path d="M 10.59375 -13.0625 C 10.707031 -14.09375 11.4375 -14.609375 12.78125 -14.609375 C 13.5 -14.609375 14.035156 -14.550781 14.390625 -14.4375 C 14.742188 -14.332031 14.988281 -14.140625 15.125 -13.859375 C 15.269531 -13.585938 15.351562 -13.34375 15.375 -13.125 C 15.40625 -12.914062 15.421875 -12.597656 15.421875 -12.171875 L 15.421875 -2.46875 C 15.421875 -2.039062 15.40625 -1.71875 15.375 -1.5 C 15.351562 -1.289062 15.273438 -1.050781 15.140625 -0.78125 C 14.878906 -0.300781 14.242188 -0.0625 13.234375 -0.0625 C 12.234375 -0.0625 11.5625 -0.179688 11.21875 -0.421875 C 10.875 -0.671875 10.675781 -1.039062 10.625 -1.53125 C 9.9375 -0.550781 8.789062 -0.0625 7.1875 -0.0625 C 5.59375 -0.0625 4.109375 -0.789062 2.734375 -2.25 C 1.367188 -3.707031 0.6875 -5.398438 0.6875 -7.328125 C 0.6875 -9.265625 1.375 -10.957031 2.75 -12.40625 C 4.132812 -13.863281 5.648438 -14.59375 7.296875 -14.59375 C 7.921875 -14.59375 8.492188 -14.476562 9.015625 -14.25 C 9.535156 -14.03125 9.894531 -13.820312 10.09375 -13.625 C 10.300781 -13.4375 10.46875 -13.25 10.59375 -13.0625 Z M 5.546875 -7.28125 C 5.546875 -6.675781 5.785156 -6.128906 6.265625 -5.640625 C 6.742188 -5.148438 7.328125 -4.90625 8.015625 -4.90625 C 8.703125 -4.90625 9.269531 -5.15625 9.71875 -5.65625 C 10.175781 -6.15625 10.40625 -6.703125 10.40625 -7.296875 C 10.40625 -7.898438 10.1875 -8.460938 9.75 -8.984375 C 9.3125 -9.503906 8.726562 -9.765625 8 -9.765625 C 7.269531 -9.765625 6.675781 -9.503906 6.21875 -8.984375 C 5.769531 -8.460938 5.546875 -7.894531 5.546875 -7.28125 Z M 5.546875 -7.28125 "/></g></g></g><g fill="#000000" fill-opacity="1"><g transform="translate(95.984933, 27.554127)"><g><path d="M 11.03125 -14.4375 C 11.382812 -14.332031 11.675781 -14.144531 11.90625 -13.875 C 12.144531 -13.613281 12.265625 -13.1875 12.265625 -12.59375 C 12.265625 -12 12.085938 -11.347656 11.734375 -10.640625 C 11.378906 -9.941406 10.867188 -9.59375 10.203125 -9.59375 C 9.867188 -9.59375 9.550781 -9.664062 9.25 -9.8125 C 8.945312 -9.96875 8.546875 -10.046875 8.046875 -10.046875 C 7.546875 -10.046875 7.078125 -9.867188 6.640625 -9.515625 C 6.203125 -9.160156 5.984375 -8.734375 5.984375 -8.234375 L 5.984375 -2.40625 C 5.984375 -1.988281 5.96875 -1.671875 5.9375 -1.453125 C 5.914062 -1.242188 5.832031 -1 5.6875 -0.71875 C 5.40625 -0.238281 4.679688 0 3.515625 0 C 2.628906 0 1.992188 -0.15625 1.609375 -0.46875 C 1.316406 -0.726562 1.148438 -1.125 1.109375 -1.65625 C 1.109375 -1.84375 1.109375 -2.113281 1.109375 -2.46875 L 1.109375 -12.203125 C 1.109375 -12.628906 1.117188 -12.945312 1.140625 -13.15625 C 1.171875 -13.375 1.253906 -13.609375 1.390625 -13.859375 C 1.648438 -14.359375 2.367188 -14.609375 3.546875 -14.609375 C 4.660156 -14.609375 5.351562 -14.398438 5.625 -13.984375 C 5.832031 -13.679688 5.9375 -13.375 5.9375 -13.0625 C 6.03125 -13.1875 6.160156 -13.34375 6.328125 -13.53125 C 6.503906 -13.71875 6.878906 -13.96875 7.453125 -14.28125 C 8.023438 -14.59375 8.53125 -14.75 8.96875 -14.75 C 9.40625 -14.75 9.769531 -14.722656 10.0625 -14.671875 C 10.363281 -14.628906 10.6875 -14.550781 11.03125 -14.4375 Z M 11.03125 -14.4375 "/></g></g></g><g clip-path="url(#99fbf10827)"><g fill="#000000" fill-opacity="1"><g transform="translate(107.047742, 27.554127)"><g><path d="M 9.703125 -7.328125 L 13.390625 -4.265625 C 13.859375 -3.878906 14.148438 -3.582031 14.265625 -3.375 C 14.390625 -3.175781 14.453125 -2.984375 14.453125 -2.796875 C 14.453125 -2.359375 14.164062 -1.757812 13.59375 -1 C 12.957031 -0.21875 12.398438 0.171875 11.921875 0.171875 C 11.515625 0.171875 10.953125 -0.0976562 10.234375 -0.640625 L 9.953125 -0.828125 C 9.523438 -1.179688 8.867188 -1.796875 7.984375 -2.671875 C 7.097656 -3.554688 6.425781 -4.179688 5.96875 -4.546875 L 5.96875 -2.40625 C 5.96875 -1.988281 5.953125 -1.671875 5.921875 -1.453125 C 5.890625 -1.242188 5.800781 -1 5.65625 -0.71875 C 5.414062 -0.238281 4.703125 0 3.515625 0 C 2.359375 0 1.648438 -0.25 1.390625 -0.75 C 1.253906 -1.03125 1.171875 -1.273438 1.140625 -1.484375 C 1.117188 -1.691406 1.109375 -2.007812 1.109375 -2.4375 L 1.109375 -19.046875 C 1.109375 -19.472656 1.117188 -19.789062 1.140625 -20 C 1.171875 -20.21875 1.253906 -20.46875 1.390625 -20.75 C 1.648438 -21.25 2.367188 -21.5 3.546875 -21.5 C 4.429688 -21.5 5.0625 -21.335938 5.4375 -21.015625 C 5.75 -20.765625 5.914062 -20.359375 5.9375 -19.796875 C 5.957031 -19.628906 5.96875 -19.375 5.96875 -19.03125 L 5.96875 -10.234375 C 6.300781 -10.515625 6.800781 -10.984375 7.46875 -11.640625 C 8.144531 -12.304688 8.648438 -12.78125 8.984375 -13.0625 L 9.3125 -13.28125 C 9.96875 -13.78125 10.523438 -14.03125 10.984375 -14.03125 C 11.441406 -14.03125 11.972656 -13.65625 12.578125 -12.90625 C 13.179688 -12.15625 13.484375 -11.566406 13.484375 -11.140625 C 13.484375 -10.722656 13.140625 -10.226562 12.453125 -9.65625 Z M 9.703125 -7.328125 "/></g></g></g></g></g></g></svg>